{"title":"Alice Cooper - From The Inside - Custom Remaster by MC Lurken 16","uid":7692292,"size":306210666,"categoryP":"audio","categoryS":"flac","magnet":"?xt=urn:btih:4a9812955e9486f64a5d3a724bb7aae5d5aad7f2&amp;dn=Alice+Cooper+-+From+The+Inside+-+Custom+Remaster+by+MC+Lurken+16&amp;tr=udp%3A%2F%2Ftracker.openbittorrent.com%3A80&amp;tr=udp%3A%2F%2Fopen.demonii.com%3A1337&amp;tr=udp%3A%2F%2Ftracker.coppersurfer.tk%3A6969&amp;tr=udp%3A%2F%2Fexodus.desync.com%3A6969","seeders":1,"leechers":0,"uploader":"beavis39","files":-1,"time":1349273949,"description":"Alice Cooper - From The Inside - Custom Remaster by MC Lurken (a.k.a. Beavis39)\n\n\n\n1 - From The Inside\n2 - Wish I Were Born In Beverly Hills\n3 - The Quiet Room\n4 - Nurse Rozetta\n5 - Millie And Billie\n6 - Serious\n7 - How You Gonna See Me Now\n8 - For Veronica's Sake\n9 - Jackknife Johnny\n10 - Inmates (We're All Crazy)\n\n\n\nSetup:\n-HP G72-250US\n-Intel Core i3 M350 2.27GHz\n-8Gb PC3-10700 RAM\n-Win7 64-bit SP1\n-SB X-Fi Surround 5.1\n\n\nProcess:\n-Original 16-bit/44.1kHz files joined in Wavelab 6\n-Remove DC offset and save as 64-bit float/44.1kHz\n-Resample to 384kHz in Wavelab w/crystal resampler ultra(slow) relax background priority\n-Create new 64-bit/384kHz master recording in Wavelab\n\n\nAs reported in Wavelab:\n-Original 16-bit/44.1kHz: Apparent Bit Resolution = 16, Peak = 0db\n-With DC Offset Removed: Apparent Bit Resolution = 23, Peak = 0db\n-64-bit/384kHz Recording: Apparent Bit Resolution = 42, Peak = 0.867db\n\n\n-Resample new 64-bit/384kHz master recording to 64-bit/44.1kHz in Wavelab w/crystal resampler ultra(slow) relax background priority\n-Apply MBIT+ 16-bit Dither in Wavelab w/Izotope Ozone 5 VST Plugin\n-Flac encode level 0 with Trader's Little Helper\n-Tag and pic with xrecode II\n\n\nfoobar2000 1.1.14a / Dynamic Range Meter 1.1.1\nlog date: 2012-10-02 16:46:17\n\n--------------------------------------------------------------------------------\nAnalyzed: ? / ?\n--------------------------------------------------------------------------------\n\nDR         Peak         RMS     Duration Track\n--------------------------------------------------------------------------------\nDR9       -0.21 dB   -10.41 dB      3:54 ?-01 - From The Inside\nDR9       -0.14 dB   -10.49 dB      3:37 ?-02 - Wish I Were Born In Beverly Hills\nDR9       -0.33 dB   -12.82 dB      3:52 ?-03 - The Quiet Room\nDR10      -0.20 dB   -12.13 dB      4:15 ?-04 - Nurse Rozetta\nDR11      -0.35 dB   -15.55 dB      4:13 ?-05 - Millie And Billie\nDR9       -0.20 dB   -10.96 dB      2:45 ?-06 - Serious\nDR10      -0.02 dB   -12.97 dB      3:58 ?-07 - How You Gonna See Me Now\nDR9       -0.41 dB   -10.92 dB      3:37 ?-08 - For Veronica's Sake\nDR9       -0.48 dB   -12.82 dB      3:46 ?-09 - Jackknife Johnny\nDR9       -0.45 dB   -12.46 dB      5:05 ?-10 - Inmates (We're All Crazy)\n--------------------------------------------------------------------------------\n\nNumber of tracks:  10\nOfficial DR value: DR9\n\nSamplerate:        44100 Hz\nChannels:          2\nBits per sample:   16\nBitrate:           1411 kbps\nCodec:             PCM\n\n\n\nenjoy :)\n","torrent":{"xt":"urn:btih:4a9812955e9486f64a5d3a724bb7aae5d5aad7f2","amp;dn":"Alice+Cooper+-+From+The+Inside+-+Custom+Remaster+by+MC+Lurken+16","amp;tr":["udp%3A%2F%2Ftracker.openbittorrent.com%3A80","udp%3A%2F%2Fopen.demonii.com%3A1337","udp%3A%2F%2Ftracker.coppersurfer.tk%3A6969","udp%3A%2F%2Fexodus.desync.com%3A6969"],"infoHash":"4a9812955e9486f64a5d3a724bb7aae5d5aad7f2","infoHashBuffer":{"type":"Buffer","data":[74,152,18,149,94,148,134,246,74,93,58,114,75,183,170,229,213,170,215,242]},"announce":[],"urlList":[]}}